<?xml version="1.0" encoding="UTF-8"?>
<svg id="_レイヤー_1" data-name="レイヤー 1" xmlns="http://www.w3.org/2000/svg" viewBox="0 0 512 512">
  <defs>
    <style>
      .cls-1 {
        fill: #44c3d2;
      }

      .cls-2 {
        fill: #fff;
      }

      .cls-3 {
        fill: #1f4042;
      }
    </style>
  </defs>
  <g>
    <path class="cls-2" d="M486.26,293.19c0,53.35-42.54,96.56-95.02,96.56H50.11c-15.13-17.1-24.37-39.72-24.37-64.55,0-37.99,21.6-70.86,53.04-86.61,12.65-6.39,26.93-9.96,42.02-9.96.85,0,1.7,0,2.55.08,14.61-60.64,68.46-105.62,132.67-105.62,52.67,0,98.39,30.28,121.13,74.66,4.59-.71,9.32-1.09,14.09-1.09,32.55,0,61.25,16.61,78.38,41.93,10.5,15.52,16.64,34.3,16.64,54.59Z"/>
    <path class="cls-1" d="M391.24,413.52H50.11c-6.81,0-13.29-2.92-17.8-8.02-19.56-22.11-30.34-50.63-30.34-80.3,0-46.09,25.35-87.42,66.16-107.86,11.78-5.95,24.28-9.8,37.28-11.48,22.85-63.54,82.46-106.53,150.6-106.53,54.69,0,104.78,27.82,134.21,73.57.34,0,.67,0,1.01,0,39.22,0,75.88,19.58,98.06,52.38,13.55,20.03,20.72,43.51,20.72,67.91,0,66.35-53.29,120.33-118.79,120.33ZM61.75,365.98h329.49c39.29,0,71.25-32.66,71.25-72.8,0-14.86-4.34-29.13-12.56-41.28-13.33-19.72-35.28-31.48-58.69-31.48-3.49,0-7,.27-10.43.8-10.13,1.58-20.13-3.51-24.81-12.64-19.52-38.08-57.83-61.73-99.99-61.73-52.11,0-97.17,35.95-109.57,87.42-2.75,11.43-13.44,19.14-25.17,18.11l-.49.02c-11.04,0-21.58,2.49-31.31,7.41-24.69,12.36-39.98,37.4-39.98,65.39,0,14.64,4.3,28.8,12.25,40.78Z"/>
  </g>
  <g>
    <circle class="cls-2" cx="257.26" cy="254.59" r="132.35"/>
    <path class="cls-1" d="M257.26,410.71c-86.08,0-156.11-70.03-156.11-156.11s70.03-156.11,156.11-156.11,156.11,70.03,156.11,156.11-70.03,156.11-156.11,156.11ZM257.26,146.02c-59.87,0-108.58,48.71-108.58,108.58s48.71,108.58,108.58,108.58,108.58-48.71,108.58-108.58-48.71-108.58-108.58-108.58Z"/>
  </g>
  <path class="cls-3" d="M260.2,279.64c-3.99,3.99-11.28,3.27-16.15-1.6-4.87-4.87-5.59-12.16-1.6-16.15s84.23-76.22,89.1-71.35c4.87,4.87-67.36,85.11-71.35,89.1Z"/>
  <path class="cls-3" d="M265.8,263.59c2.5,2.5.54,8.55-4.32,13.42-4.87,4.87-10.93,6.82-13.42,4.32-2.5-2.5-46.16-54.17-41.3-59.04,4.87-4.87,56.55,38.8,59.04,41.3Z"/>
</svg>